<svg width="22" height="19" viewBox="0 0 22 19" fill="none" xmlns="http://www.w3.org/2000/svg">
<path d="M20.6308 19C20.2486 19 19.8663 18.8492 19.5941 18.5555L11.0028 9.27534L2.41145 18.5555C1.91093 19.0962 1.0419 19.1508 0.469882 18.6777C-0.102138 18.2046 -0.15989 17.3831 0.340628 16.8424L9.96597 6.44451C10.2272 6.16377 10.604 6 11 6C11.396 6 11.7728 6.16117 12.034 6.44451L21.6594 16.8424C22.1599 17.3831 22.1021 18.2046 21.5301 18.6777C21.2689 18.8934 20.9471 19 20.6253 19H20.6308Z" fill="#FF9900"/>
<path d="M20.6308 13C20.2486 13 19.8663 12.8492 19.5941 12.5555L11.0028 3.27534L2.41145 12.5555C1.91093 13.0962 1.0419 13.1508 0.469882 12.6777C-0.102138 12.2046 -0.15989 11.3831 0.340628 10.8424L9.96597 0.444511C10.2272 0.163767 10.604 -6.92412e-08 11 0C11.396 6.92412e-08 11.7728 0.161168 12.034 0.444511L21.6594 10.8424C22.1599 11.3831 22.1021 12.2046 21.5301 12.6777C21.2689 12.8934 20.9471 13 20.6253 13H20.6308Z" fill="#FF9900"/>
</svg>
