<svg width="19" height="22" viewBox="0 0 19 22" fill="none" xmlns="http://www.w3.org/2000/svg">
<path d="M17.8175 11C17.4874 11 17.1573 10.8724 16.9221 10.6239L9.50238 2.77145L2.08262 10.6239C1.65035 11.0814 0.899824 11.1276 0.405807 10.7272C-0.0882103 10.3269 -0.138087 9.63187 0.294179 9.17436L8.60697 0.376125C8.83261 0.138572 9.15799 -5.97992e-08 9.5 0C9.84202 5.97992e-08 10.1674 0.136373 10.393 0.376125L18.7058 9.17436C19.1381 9.63187 19.0882 10.3269 18.5942 10.7273C18.3686 10.9098 18.0907 11 17.8128 11H17.8175Z" fill="#FF0000"/>
<path d="M17.8175 16C17.4874 16 17.1573 15.884 16.9221 15.6581L9.50238 8.5195L2.08262 15.6581C1.65035 16.074 0.899825 16.116 0.405807 15.752C-0.0882101 15.3881 -0.138087 14.7562 0.294179 14.3403L8.60697 6.34193C8.83261 6.12598 9.15799 6 9.5 6C9.84202 6 10.1674 6.12398 10.393 6.34193L18.7058 14.3403C19.1381 14.7562 19.0882 15.3881 18.5942 15.752C18.3686 15.918 18.0907 16 17.8128 16H17.8175Z" fill="#FF0000"/>
<path d="M17.8175 22C17.4874 22 17.1573 21.8724 16.9221 21.6239L9.50238 13.7714L2.08262 21.6239C1.65035 22.0814 0.899824 22.1276 0.405807 21.7272C-0.0882103 21.3269 -0.138087 20.6319 0.294179 20.1744L8.60697 11.3761C8.83261 11.1386 9.15799 11 9.5 11C9.84202 11 10.1674 11.1364 10.393 11.3761L18.7058 20.1744C19.1381 20.6319 19.0882 21.3269 18.5942 21.7273C18.3686 21.9098 18.0907 22 17.8128 22H17.8175Z" fill="#FF0000"/>
</svg>
